<?xml version="1.0" encoding="utf-8"?>
<!-- Generator: Adobe Illustrator 24.1.2, SVG Export Plug-In . SVG Version: 6.00 Build 0)  -->
<svg version="1.0" id="Calque_1" focusable="false" xmlns="http://www.w3.org/2000/svg" xmlns:xlink="http://www.w3.org/1999/xlink"
	 x="0px" y="0px" viewBox="0 0 512 512" style="enable-background:new 0 0 512 512;" xml:space="preserve">
<path d="M487.4,315.7l-42.6-24.6c4.3-23.2,4.3-47,0-70.2l42.6-24.6c4.9-2.8,7.1-8.6,5.5-14c-11.1-35.6-30-67.8-54.7-94.6
	c-3.8-4.1-10-5.1-14.8-2.3L380.8,110c-17.9-15.4-38.5-27.3-60.8-35.1V25.8c0-5.6-3.9-10.5-9.4-11.7c-36.7-8.2-74.3-7.8-109.2,0
	c-5.5,1.2-9.4,6.1-9.4,11.7V75c-22.2,7.9-42.8,19.8-60.8,35.1L88.7,85.5c-4.9-2.8-11-1.9-14.8,2.3c-24.7,26.7-43.6,58.9-54.7,94.6
	c-1.7,5.4,0.6,11.2,5.5,14L67.3,221c-4.3,23.2-4.3,47,0,70.2l-42.6,24.6c-4.9,2.8-7.1,8.6-5.5,14c11.1,35.6,30,67.8,54.7,94.6
	c3.8,4.1,10,5.1,14.8,2.3l42.6-24.6c17.9,15.4,38.5,27.3,60.8,35.1v49.2c0,5.6,3.9,10.5,9.4,11.7c36.7,8.2,74.3,7.8,109.2,0
	c5.5-1.2,9.4-6.1,9.4-11.7v-49.2c22.2-7.9,42.8-19.8,60.8-35.1l42.6,24.6c4.9,2.8,11,1.9,14.8-2.3c24.7-26.7,43.6-58.9,54.7-94.6
	C494.5,324.3,492.3,318.5,487.4,315.7z M256.05,392.5c-75.38,0-136.5-61.11-136.5-136.5s61.12-136.5,136.5-136.5
	c75.39,0,136.5,61.11,136.5,136.5S331.44,392.5,256.05,392.5z"/>
<path d="M228.09,318.57l-56.68-56.68c-3.41-3.41-3.41-8.93,0-12.33l12.33-12.33c3.41-3.41,8.93-3.41,12.33,0l38.18,38.18
	l81.78-81.78c3.41-3.41,8.93-3.41,12.33,0l12.33,12.33c3.41,3.41,3.41,8.93,0,12.33L240.42,318.57
	C237.01,321.98,231.49,321.98,228.09,318.57L228.09,318.57z"/>
</svg>
