<?xml version="1.0" encoding="UTF-8" standalone="no"?>
<svg
   xmlns:dc="http://purl.org/dc/elements/1.1/"
   xmlns:cc="http://creativecommons.org/ns#"
   xmlns:rdf="http://www.w3.org/1999/02/22-rdf-syntax-ns#"
   xmlns:svg="http://www.w3.org/2000/svg"
   xmlns="http://www.w3.org/2000/svg"
   xmlns:sodipodi="http://sodipodi.sourceforge.net/DTD/sodipodi-0.dtd"
   xmlns:inkscape="http://www.inkscape.org/namespaces/inkscape"
   inkscape:version="1.0 (6e3e5246a0, 2020-05-07)"
   height="496.00186"
   width="474.82089"
   sodipodi:docname="expert.svg"
   xml:space="preserve"
   viewBox="0 0 474.82089 496.00186"
   y="0px"
   x="0px"
   focusable="false"
   id="Calque_1"
   version="1.0"><metadata
   id="metadata11"><rdf:RDF><cc:Work
       rdf:about=""><dc:format>image/svg+xml</dc:format><dc:type
         rdf:resource="http://purl.org/dc/dcmitype/StillImage" /><dc:title></dc:title></cc:Work></rdf:RDF></metadata><defs
   id="defs9" /><sodipodi:namedview
   inkscape:current-layer="Calque_1"
   inkscape:window-maximized="1"
   inkscape:window-y="739"
   inkscape:window-x="1080"
   inkscape:cy="236.10465"
   inkscape:cx="281.68669"
   inkscape:zoom="1.1297136"
   fit-margin-bottom="0"
   fit-margin-right="0"
   fit-margin-left="0"
   fit-margin-top="0"
   inkscape:pagecheckerboard="true"
   showgrid="false"
   id="namedview7"
   inkscape:window-height="978"
   inkscape:window-width="1920"
   inkscape:pageshadow="2"
   inkscape:pageopacity="0"
   guidetolerance="10"
   gridtolerance="10"
   objecttolerance="10"
   borderopacity="1"
   bordercolor="#666666"
   pagecolor="#ffffff" />


<path
   style="fill:#e52534;fill-opacity:1;stroke:none;stroke-width:0.625917"
   d="m 218.64973,495.15578 c -14.22202,-0.99863 -36.37168,-4.60012 -40.04241,-6.5108 -2.2355,-1.16362 -4.17924,-3.3958 -5.30669,-6.09417 -0.82087,-1.9646 -0.96875,-6.23082 -0.96875,-27.94652 v -25.62797 l -4.5379,-1.70924 c -17.13965,-6.45579 -36.66482,-17.55287 -50.41185,-28.65146 -2.68641,-2.16886 -5.22457,-4.15362 -5.64034,-4.41059 -0.45261,-0.27972 -9.27301,4.45009 -21.979443,11.78614 -11.67288,6.73934 -22.2835,12.69628 -23.57914,13.23763 -3.13506,1.30991 -6.95583,0.70175 -10.1562,-1.61659 -3.09437,-2.24155 -14.92137,-16.3726 -22.05057,-26.3463 -13.2723,-18.56786 -24.7715607,-40.94595 -32.2599606,-62.77937 -1.51997005,-4.43168 -2.7574001,-9.07911 -2.7498301,-10.32763 0.0159,-2.63159 1.77449009,-6.79903 3.5249901,-8.35356 0.6665199,-0.59191 10.7757406,-6.59616 22.4649206,-13.34279 11.68919,-6.74663 21.50627,-12.51496 21.81574,-12.81851 0.3325,-0.32615 0.13748,-3.57347 -0.47675,-7.93838 -2.57006,-18.26352 -2.59923,-38.1904 -0.08,-54.6432 0.50076,-3.27041 0.91553,-6.53705 0.9217,-7.2592 0.009,-1.07089 -3.88054,-3.55225 -21.09511,-13.45721 -11.60848,-6.67932 -22.0719507,-12.98481 -23.2521507,-14.01219 -2.56530995,-2.23314 -3.83711,-5.02052 -3.83711,-8.40971 0,-4.47238 7.15232,-23.37275 14.5643007,-38.4869 10.06784,-20.52987 21.45134,-37.61593 36.65257,-55.013649 6.01174,-6.8804 8.36566,-8.25626 13.37617,-7.81829 2.94544,0.25746 5.76979,1.71045 25.09747,12.91152 11.978203,6.94179 22.073133,12.621429 22.433183,12.621429 0.36006,0 2.10789,-1.22737 3.88407,-2.727482 12.83343,-10.838817 32.33314,-22.264607 50.37608,-29.517697 l 6.68218,-2.68618 0.31296,-26.504981 c 0.27212,-23.046631 0.44752,-26.75018 1.34423,-28.384208 2.26228,-4.1224137 4.93365,-5.4192257 15.27906,-7.4171856 30.8319,-5.954416 64.08986,-5.88553495 94.64945,0.196031 6.96348,1.385782 9.41538,2.1443489 11.11068,3.4374149 4.4266,3.3763307 4.32991,2.7110827 4.6777,32.1846497 l 0.31296,26.521679 5.00734,1.82157 c 15.76926,5.73652 37.4794,18.26191 51.32668,29.612297 2.35759,1.932482 4.60362,3.432042 4.99118,3.332362 0.38756,-0.0997 10.6388,-5.917739 22.78055,-12.929039 19.89551,-11.48874 22.36516,-12.75157 25.00463,-12.7859 4.50747,-0.0586 7.17952,1.63223 13.05626,8.26191 21.13537,23.843249 38.7592,54.464219 48.95778,85.062919 2.85471,8.56494 2.45216,12.76573 -1.58034,16.49146 -0.9891,0.91385 -11.47424,7.24156 -23.30033,14.06157 l -21.50197,12.40001 0.36432,2.52523 c 2.15584,14.94292 2.4732,19.15126 2.47974,32.8822 0.005,10.28518 -0.30475,16.96804 -1.02959,22.22005 -0.57012,4.13105 -1.21256,8.78764 -1.42763,10.34798 l -0.39104,2.83697 21.50407,12.40123 c 11.82724,6.82068 22.31333,13.14893 23.30243,14.06278 4.28551,3.95949 4.51348,8.33863 0.97078,18.64821 -9.19007,26.74392 -23.50875,52.57272 -41.71255,75.24331 -10.90461,13.58033 -15.35385,17.0463 -20.64817,16.08495 -1.35565,-0.24616 -11.7724,-5.82553 -24.28128,-13.00543 -12.0489,-6.91588 -22.12893,-12.69359 -22.40006,-12.83936 -0.27114,-0.14577 -2.38361,1.25055 -4.69438,3.10294 -15.22825,12.20743 -33.28539,22.6945 -50.98869,29.61277 l -6.10269,2.38487 v 25.82916 c 0,16.72769 -0.23459,26.45004 -0.66574,27.59117 -0.81884,2.16726 -3.45193,5.01508 -5.74382,6.21224 -3.89672,2.03544 -25.17496,5.40677 -40.84716,6.47183 -10.65304,0.72396 -22.93463,0.71414 -33.48655,-0.0268 z m 35.67726,-111.76236 c 28.20881,-3.50965 55.1539,-16.48393 76.06703,-36.62689 21.78798,-20.9856 35.1051,-46.03011 40.44522,-76.06232 1.21581,-6.83757 1.42575,-10.18419 1.42575,-22.72731 0,-16.22011 -0.9912,-24.12045 -4.66992,-37.22154 -14.15619,-50.4147 -57.25159,-89.14517 -108.57371,-97.57679 -9.31486,-1.53032 -12.54704,-1.76724 -23.72603,-1.73913 -21.56589,0.0542 -39.68612,4.21397 -59.08356,13.56339 -40.68246,19.60864 -68.64403,57.65974 -75.64817,102.94473 -1.537713,9.942 -1.537713,30.11668 0,40.05868 7.00414,45.28499 34.96571,83.33609 75.64817,102.94473 24.87973,11.99184 49.81452,15.96353 78.11522,12.44245 z"
   id="path69" /><path
   style="fill:#e52534;fill-opacity:1;stroke-width:0.625917"
   d="m 211.76464,312.28938 c -1.73992,-0.44881 -8.15439,-6.51202 -31.17269,-29.46568 -15.94009,-15.89533 -29.56484,-29.83468 -30.27721,-30.97636 -1.78729,-2.86435 -1.31314,-6.753 1.21168,-9.93737 4.0405,-5.09599 13.72756,-13.85033 16.02921,-14.48585 4.46428,-1.23264 5.09991,-0.7391 26.0537,20.22956 10.84196,10.84965 19.9968,19.72664 20.34409,19.72664 0.34729,0 19.07953,-18.46707 41.62719,-41.03794 22.54767,-22.57087 41.81701,-41.47363 42.82076,-42.00614 1.21567,-0.64494 2.76725,-0.86199 4.64715,-0.6501 2.65114,0.29882 3.32757,0.82733 11.16278,8.72161 8.06267,8.12346 8.34063,8.49169 8.34063,11.0492 0,1.45513 -0.40438,3.40627 -0.89863,4.33587 -0.49425,0.92961 -23.96128,24.73409 -52.14896,52.89886 -54.9015,54.85685 -52.70708,52.89586 -57.7397,51.5977 z"
   id="path894" /></svg>
