<?xml version="1.0" encoding="UTF-8" standalone="no"?>
<svg
   xmlns:dc="http://purl.org/dc/elements/1.1/"
   xmlns:cc="http://creativecommons.org/ns#"
   xmlns:rdf="http://www.w3.org/1999/02/22-rdf-syntax-ns#"
   xmlns:svg="http://www.w3.org/2000/svg"
   xmlns="http://www.w3.org/2000/svg"
   xmlns:sodipodi="http://sodipodi.sourceforge.net/DTD/sodipodi-0.dtd"
   xmlns:inkscape="http://www.inkscape.org/namespaces/inkscape"
   width="197.61618mm"
   height="60.071587mm"
   viewBox="0 0 197.61618 60.071587"
   version="1.1"
   id="svg222"
   inkscape:version="1.0 (6e3e5246a0, 2020-05-07)"
   sodipodi:docname="GGN_logo.svg">
  <defs
     id="defs216" />
  <sodipodi:namedview
     fit-margin-bottom="0"
     fit-margin-right="0"
     fit-margin-left="0"
     fit-margin-top="0"
     inkscape:pagecheckerboard="true"
     id="base"
     pagecolor="#ffffff"
     bordercolor="#666666"
     borderopacity="1.0"
     inkscape:pageopacity="0.0"
     inkscape:pageshadow="2"
     inkscape:zoom="0.35"
     inkscape:cx="-550.03983"
     inkscape:cy="518.05132"
     inkscape:document-units="mm"
     inkscape:current-layer="layer1"
     inkscape:document-rotation="0"
     showgrid="false"
     inkscape:window-width="1920"
     inkscape:window-height="978"
     inkscape:window-x="1080"
     inkscape:window-y="739"
     inkscape:window-maximized="1" />
  <metadata
     id="metadata219">
    <rdf:RDF>
      <cc:Work
         rdf:about="">
        <dc:format>image/svg+xml</dc:format>
        <dc:type
           rdf:resource="http://purl.org/dc/dcmitype/StillImage" />
        <dc:title></dc:title>
      </cc:Work>
    </rdf:RDF>
  </metadata>
  <g
     transform="translate(-5.3022053,-11.098923)"
     inkscape:label="Calque 1"
     inkscape:groupmode="layer"
     id="layer1">
    <path
       id="path136"
       d="M 77.308178,28.34711 79.731761,11.101569 H 11.691512 L 5.3626787,62.594777 c -0.58473,4.474104 3.145895,8.5725 7.9454373,8.569854 0,0 38.301083,0.01323 40.179625,0 1.563687,-0.105833 10.30552,-0.148166 14.030854,-8.556625 L 70.815303,43.489215 C 72.535095,31.556506 62.777261,33.339798 55.845178,33.339798 c -3.817937,0 -11.750146,-0.01058 -19.412479,-0.01058 -1.648354,10.122958 4.725458,9.993312 12.374563,9.993312 h 0.568854 l -1.666875,11.800417 -19.475979,0.0053 3.254374,-26.781125 z M 8.8340117,68.28861 v -0.0053 h 0.0053 z"
       style="fill:#ffffff;stroke-width:0.264583" />
    <path
       id="path138"
       d="m 76.162532,68.442069 v -0.0053 h 0.0053 z m 0.669396,-0.804334 v -0.0053 h 0.0053 z M 125.39884,11.098923 H 79.731762 L 77.308178,28.344465 H 138.6968 c 2.88926,-11.387667 -4.24392,-17.245542 -13.29796,-17.245542 z"
       style="fill:#ffffff;stroke-width:0.264583" />
    <g
       id="g150"
       transform="matrix(0.26458333,0,0,0.26458333,-64.905361,-89.440097)"
       style="fill:#ffffff">
      <g
         id="g148"
         style="fill:#ffffff">
        <g
           id="g142"
           style="fill:#ffffff">
          <path
             id="path140"
             d="m 1011.5,436.31 c -1.06,7.74 -1.35,10.12 -1.35,10.12 l -18.39,142.36 c -1.33,10.21 -10.56,17.87 -21.5,17.87 l -39.43,0.02 c -13,0 -23.07,-10.69 -21.5,-22.81 l 14.64,-113.53 c 1.66,-12.71 -9.19,-25.49 -22.81,-25.49 l -90.92,0.3 c -14.12,0 -24.49,-11.03 -22.75,-24.19 l 5.42,-40.97 h 166.18 c 28.62,0 58.27,13.16 52.41,56.32 z"
             style="fill:#ffffff" />
        </g>
        <g
           id="g146"
           style="fill:#ffffff">
          <path
             id="path144"
             d="m 787.8,464.01 h 60.03 c 12.24,0 21.71,10.07 20.2,21.47 L 854.5,586.98 C 853,598.42 842.66,607 830.39,607.02 h -34.12 c -14.59,0.02 -25.9,-11.99 -24.11,-25.59 z"
             style="fill:#ffffff" />
        </g>
      </g>
    </g>
    <path
       id="path152"
       d="m 76.183699,33.329215 v 0 l -3.595688,29.262916 c -0.584729,4.474104 3.145896,8.5725 7.945438,8.569854 0,0 38.301081,0.01323 40.179621,0 1.56369,-0.105833 10.30552,-0.148166 14.03085,-8.556625 l 3.29671,-19.118791 c 1.7198,-11.932709 -8.03804,-10.149417 -14.97012,-10.149417 -3.81794,0 -11.75015,-0.01058 -19.41248,-0.01058 -1.64835,10.122958 4.72546,9.993312 12.37456,9.993312 h 0.56885 l -1.66687,11.800417 -19.475975,0.0053 2.651125,-21.799021 v 0 z M 76.059345,68.28861 v -0.0053 h 0.0053 z"
       style="fill:#ffffff;stroke-width:0.264583" />
  </g>
</svg>
