<?xml version="1.0" encoding="utf-8"?>
<!-- Generator: Adobe Illustrator 24.1.2, SVG Export Plug-In . SVG Version: 6.00 Build 0)  -->
<svg version="1.1" id="Calque_1" focusable="false" xmlns="http://www.w3.org/2000/svg" xmlns:xlink="http://www.w3.org/1999/xlink"
	 x="0px" y="0px" viewBox="0 0 512 512" style="enable-background:new 0 0 512 512;" xml:space="preserve">
<path d="M76.4,370.3c2.8,20.7-11.8,39.7-32.5,42.5S4.2,401,1.4,380.3s11.8-39.7,32.5-42.5c3.4-0.5,6.9-0.4,10.4,0.1
	c-78.3-111.4,52-190.5,52-190.5c-5.9,43-8.2,91.2-8.2,91.2c-67.3,41.5,0.9,64.1,39.8,72.9c20.3,55.2,72.8,91.9,131.7,91.9
	c1.9,0,3.8-0.2,5.7-0.3l0.1,18.9C166.1,423.3,106.6,392.8,76.4,370.3L76.4,370.3z M184.4,42.6c0.9-7.2-0.2-14.6-3.4-21.1
	c-9.1-18.9-31.7-26.9-50.6-17.8s-26.9,31.7-17.8,50.6c6.8,14.2,21.6,22.7,37.3,21.4c-22.6,29.9-53.8,89.6-52.4,190l21.8-0.1
	c0-0.9-0.1-1.8-0.1-2.7c0-57.2,34.8-108.7,87.9-130.1c8-37.7,30.7-114.3,73.8-44.3c0,0,48.1,2.4,91.2,8.2
	C372,96.7,294.1-31.3,184.4,42.6L184.4,42.6z M488.6,176.8c18.9-9,27-31.6,17.9-50.6c-9-18.9-31.6-27-50.6-17.9
	c-15.1,7.2-23.7,23.3-21.2,39.8C403,126.1,344.9,99,251.3,100.3l0.1,22.5c2.7-0.2,5.4-0.4,8.1-0.4c57.6,0,109.3,35.2,130.5,88.8
	c39.1,9,105.1,31.6,38.5,72.5c0,0-2.3,48.1-8.2,91.2c0,0,133.5-81.2,49-194.6C475.9,180.8,482.6,179.6,488.6,176.8L488.6,176.8z
	 M374.1,436.2c21.4-32.5,46.4-89.7,45.1-179.7l-19.5,0.1c0.1,2.1,0.3,4.1,0.3,6.1c0,58.6-36.5,111-91.4,131.5
	c-8.9,39-31.4,106.7-72.8,39.5c0,0-48.1-2.3-91.2-8.2c0,0,79.9,131.3,191.9,51c0.3,4.9,1.5,9.6,3.6,14c9,18.9,31.7,26.9,50.6,17.9
	c18.9-9,26.9-31.7,17.9-50.6C402.3,444.6,388.8,436.2,374.1,436.2L374.1,436.2z"/>
<path d="M300.5,317.4c-0.5-2.3-2.8-3.8-5.1-3.3c-3.8,0.9-9.7,1.9-16,1.9c-20,0-36-12.3-42.9-30.2h40.1c2,0,3.7-1.4,4.1-3.3l2.2-10
	c0.6-2.6-1.4-5.2-4.1-5.2h-47.4c-0.4-5.1-0.5-10,0-14.9h51.8c2,0,3.7-1.4,4.1-3.3l2.3-10.5c0.6-2.6-1.4-5.1-4.1-5.1h-48.8
	c7.3-15.9,22.1-26.5,41.5-26.5c5.1,0,10.1,0.8,13.4,1.5c2.2,0.4,4.4-0.9,4.9-3l4.2-15.7c0.6-2.4-0.9-4.8-3.3-5.3
	c-4.3-0.8-11.2-1.8-18.6-1.8c-34.3,0-62,21.3-72.2,50.8h-11.7c-2.3,0-4.2,1.9-4.2,4.2v10.5c0,2.3,1.9,4.2,4.2,4.2h7.6
	c-0.4,4.8-0.4,10.3-0.1,14.9h-7.6c-2.3,0-4.2,1.9-4.2,4.2v10c0,2.3,1.9,4.2,4.2,4.2h10.6c8.8,31.9,36.4,54.9,73.3,54.9
	c9.3,0,17.1-1.6,21.6-2.7c2.2-0.6,3.5-2.7,3.1-4.9L300.5,317.4z"/>
</svg>
